Tropa de Elite 2 - O inimigo agora é outro.

video - 08/10
audio - 08/10


General
T.E.2.2010.1080p.BluRay-ZMG.up.By.LeosevenTropa.de.Elite.2.2010.1080p.BluRay.x264-ZMG.mkv
Format : Matroska
File size : 10.0 GiB
Duration : 1h 54mn
Overall bit rate : 12.5 Mbps
Encoded date : UTC 2011-02-06 01:34:21
Writing application : mkvmerge v2.9.8 ('C'est le bon') built on Aug 13 2009 12:49:06
Writing library : libebml v0.7.7 + libmatroska v0.8.1

Video
ID : 1
Format : AVC
Format/Info : Advanced Video Codec
Format profile : High@L4.1
Format settings, CABAC : Yes
Format settings, ReFrames : 4 frames
Muxing mode : Container profile=Unknown@4.1
Codec ID : V_MPEG4/ISO/AVC
Duration : 1h 54mn
Bit rate : 10.3 Mbps
Nominal bit rate : 11.0 Mbps
Width : 1 920 pixels
Height : 1 080 pixels
Display aspect ratio : 16:9
Frame rate : 23.976 fps
Resolution : 8 bits
Colorimetry : 4:2:0
Scan type : Progressive
Bits/(Pixel*Frame) : 0.207
Stream size : 8.26 GiB (82%)
Writing library : x264 core 112 r1867 22bfd31
Language : Portuguese

Audio #1
ID : 2
Format : DTS
Format/Info : Digital Theater Systems
Codec ID : A_DTS
Duration : 1h 54mn
Bit rate mode : Constant
Bit rate : 1 510 Kbps
Channel(s) : 6 channels
Channel positions : Front: L C R, Side: L R, LFE
Sampling rate : 48.0 KHz
Resolution : 16 bits
Stream size : 1.21 GiB (12%)
Title : DTS
Language : Portuguese

Audio #2
ID : 3
Format : AC-3
Format/Info : Audio Coding 3
Codec ID : A_AC3
Duration : 1h 54mn
Bit rate mode : Constant
Bit rate : 448 Kbps
Channel(s) : 6 channels
Channel positions : Front: L C R, Side: L R, LFE
Sampling rate : 48.0 KHz
Stream size : 368 MiB (4%)
Title : AC3
Language : Portuguese

Text
ID : 4
Format : UTF-8
Codec ID : S_TEXT/UTF8
Codec ID/Info : UTF-8 Plain Text
Language : Portuguese

